<?xml version="1.0" standalone="no"?>
<!DOCTYPE svg PUBLIC "-//W3C//DTD SVG 20010904//EN"
 "http://www.w3.org/TR/2001/REC-SVG-20010904/DTD/svg10.dtd">
<svg version="1.0" xmlns="http://www.w3.org/2000/svg"
 width="260.000000pt" height="260.000000pt" viewBox="0 0 260.000000 260.000000"
 preserveAspectRatio="xMidYMid meet">
<metadata>
Created by potrace 1.11, written by Peter Selinger 2001-2013
</metadata>
<g transform="translate(0.000000,260.000000) scale(0.100000,-0.100000)"
fill="#000000" stroke="none">
<path d="M178 2502 c-15 -3 -17 -99 -16 -1118 l0 -1114 144 0 144 0 0 390 c1
492 1 843 0 1403 l0 442 -128 0 c-71 0 -136 -1 -144 -3z"/>
<path d="M654 2498 c-4 -6 -7 -1407 -5 -2000 l1 -228 145 0 145 0 0 1115 c0
885 -3 1115 -12 1116 -62 5 -271 3 -274 -3z"/>
<path d="M1141 2500 c-4 -3 -7 -506 -7 -1117 l1 -1113 145 0 146 0 0 1115 c0
1063 -1 1115 -18 1116 -68 4 -261 3 -267 -1z"/>
<path d="M1622 2500 c-5 -4 -8 -2158 -3 -2217 1 -10 37 -13 146 -13 144 0 145
0 146 23 4 148 0 2200 -5 2204 -8 8 -275 10 -284 3z"/>
<path d="M2118 2502 c-13 -3 -15 -111 -15 -957 0 -525 3 -955 6 -955 3 0 26 6
51 14 44 13 131 13 180 1 14 -4 32 -7 40 -8 12 -2 14 121 14 952 l1 955 -131
0 c-72 1 -137 0 -146 -2z"/>
<path d="M2187 460 c-147 -47 -188 -247 -73 -348 69 -60 176 -66 251 -14 155
108 91 353 -96 367 -29 3 -67 0 -82 -5z"/>
</g>
</svg>
