<?xml version="1.0" standalone="no"?>
<!DOCTYPE svg PUBLIC "-//W3C//DTD SVG 20010904//EN"
 "http://www.w3.org/TR/2001/REC-SVG-20010904/DTD/svg10.dtd">
<svg version="1.0" xmlns="http://www.w3.org/2000/svg"
 width="300.000000pt" height="300.000000pt" viewBox="0 0 300.000000 300.000000"
 preserveAspectRatio="xMidYMid meet">
<metadata>
Created by potrace 1.11, written by Peter Selinger 2001-2013
</metadata>
<g transform="translate(0.000000,300.000000) scale(0.100000,-0.100000)"
fill="#000000" stroke="none">
<path d="M300 1616 l0 -1194 150 0 150 1 1 26 c1 35 1 2321 0 2344 -1 15 -15
17 -151 17 l-150 0 0 -1194z"/>
<path d="M810 1616 l0 -1193 150 -1 150 0 0 1194 0 1194 -150 0 -150 0 0
-1194z"/>
<path d="M1319 2773 c0 -50 0 -2244 0 -2305 l1 -46 150 0 150 1 0 1193 0 1194
-150 0 -150 0 -1 -37z"/>
<path d="M1830 2803 c0 -12 -1 -2248 0 -2319 l0 -61 150 -1 150 0 0 1194 0
1194 -150 0 c-82 0 -150 -3 -150 -7z"/>
<path d="M2339 2803 c-5 -41 -2 -2033 3 -2033 4 0 18 4 33 10 58 22 162 20
247 -6 15 -5 17 64 17 1016 l0 1020 -150 0 c-82 0 -149 -3 -150 -7z"/>
<path d="M2447 629 c-93 -15 -171 -113 -170 -213 1 -119 85 -206 201 -212 71
-3 107 11 157 60 149 149 19 401 -188 365z"/>
</g>
</svg>
